PathFileType	4	(X/Y/Z)	Patient5_TMGait_0pt45_1_right_03.trc.trc
DataRate	CameraRate	NumFrames	NumMarkers	Units	OrigDataRate	OrigDataStartFrame	OrigNumFrames
60.085836909871	60.085836909871	4	32	mm	60.085836909871	36	       141
Frame#	Time	R.ASIS			L.ASIS			Chest			R.Shoulder			Neck			L.Shoulder			L.Elbow			L.Wrist			R.Elbow			R.Wrist			L.Thigh.Superior			L.Thigh.Lateral			L.Thigh.Inferior			L.Patella			L.Shank.Superior			L.Shank.Lateral			L.Shank.Inferior			L.Heel			L.Midfoot.Lateral			L.Midfoot.Superior			L.Toe			R.Thigh.Superior			R.Thigh.Lateral			R.Thigh.Inferior			R.Patella			R.Shank.Superior			R.Shank.Lateral			R.Shank.Inferior			R.Heel			R.Midfoot.Lateral			R.Midfoot.Superior			R.Toe			
		X1	Y1	Z1	X2	Y2	Z2	X3	Y3	Z3	X4	Y4	Z4	X5	Y5	Z5	X6	Y6	Z6	X7	Y7	Z7	X8	Y8	Z8	X9	Y9	Z9	X10	Y10	Z10	X11	Y11	Z11	X12	Y12	Z12	X13	Y13	Z13	X14	Y14	Z14	X15	Y15	Z15	X16	Y16	Z16	X17	Y17	Z17	X18	Y18	Z18	X19	Y19	Z19	X20	Y20	Z20	X21	Y21	Z21	X22	Y22	Z22	X23	Y23	Z23	X24	Y24	Z24	X25	Y25	Z25	X26	Y26	Z26	X27	Y27	Z27	X28	Y28	Z28	X29	Y29	Z29	X30	Y30	Z30	X31	Y31	Z31	X32	Y32	Z32	

36	5.052500000000	955.543569844324	972.240191129682	588.697222899022	934.878344270237	957.846059761257	347.857937784381	992.734989151760	1435.168660670498	509.998312876512	891.415406180609	1481.597552489510	682.284243706858	855.689643791752	1549.902109811627	501.761461394802	925.843734956050	1510.716301567809	318.172807616328	846.701070763145	1200.490820667831	171.994924745923	950.491300916010	932.741205392233	152.931632142045	821.939599010675	1151.366002642160	801.932849031310	1033.247140159736	964.360479212680	733.845163576601	942.456777378768	731.058885549681	325.932864433476	862.385948813616	666.851858978253	284.157968836953	935.829839979244	600.412631760477	333.914552348418	911.301849657445	459.105138733083	324.823033516363	816.466584448838	384.757952543393	351.715801609888	716.587690568824	366.009672867940	281.072210622833	722.569534622595	300.176583164472	365.869332090168	484.596313153932	171.206318885865	372.227691087741	545.318068143863	100.207770294912	315.483529660457	659.441008229209	103.932008132768	351.164884439425	724.979136737283	40.880608252460	362.531528424618	990.276287651255	746.295609329361	609.492071016477	911.647492249369	659.994580462590	657.562573256684	998.933675896275	618.995052013248	583.704374066374	1007.505239606487	520.220983983780	609.519026596591	971.798630344050	419.479566115849	567.284975048125	902.862602906854	345.100618836955	645.943290976854	960.619442104424	279.794430420163	561.373897575092	847.602500719833	53.280139232307	517.510818833508	921.341514378883	25.136447526419	595.865168155945	1028.734502581282	88.573935841062	578.744767867621	1132.182790495698	43.834823308593	585.989286441407	
37	5.069142857143	956.241171065121	971.700449431783	590.675614425844	934.100592609322	957.954226192473	350.749095011189	994.795409322900	1434.584506318142	512.904158951532	895.525333880366	1481.280878635615	686.220660753488	857.909645738803	1549.779594628724	506.280659793588	926.233732855672	1510.786069643275	321.893840385412	843.459321886982	1202.133799870931	174.871301430335	946.860295559890	934.275660468792	154.746897059980	827.366177573479	1151.141153257252	806.817556645455	1040.953784835488	967.521428900319	736.797077703105	949.245526575015	733.055276467214	323.095639347385	871.626404639225	666.844443118784	281.683322256551	949.265693765563	602.343773018130	328.734952537223	929.108013201090	459.265335137831	318.836520659906	831.704111502735	385.600368621632	347.093787253819	730.694119157945	370.601691288343	277.170061553975	734.825042058989	304.904978713293	362.113308054645	492.321984278229	190.846235769495	369.656402834084	546.894241439744	114.102004054745	313.840091997375	661.335749223307	109.326176927804	349.455700474304	720.141237602419	39.985689945332	362.051332251052	986.773510976403	745.015199243489	610.184678527999	906.703854935441	659.932531747384	659.097503359869	991.682687910219	617.336474260945	583.850061214041	998.808338275240	519.088967258235	609.357687748118	962.804555090780	419.374353712498	567.528170028459	894.871869115236	344.810742940163	646.591593789644	952.226126920560	279.799515753443	561.520382233975	840.105591946716	53.080581849320	517.398640926110	913.770447789781	25.007412968486	595.886822419779	1021.148914755794	88.436255929283	578.530321042858	1124.632752989345	43.757992161205	585.988295841232	
38	5.085785714286	956.746290139529	970.983558941742	592.428709803157	933.125354838896	957.556477887955	353.554161802580	996.587803700893	1433.593047331005	515.443361778508	899.344329419231	1480.416652746994	689.773612142461	859.839866476437	1549.175701130420	510.421883226408	926.214865404230	1510.469483477404	325.234136468725	839.741104333862	1203.061530611825	177.889814188275	943.605746217238	935.464415524820	156.697658527615	833.074182862239	1150.426752860698	811.738424865237	1048.516107221735	969.738093831432	739.999516260664	956.145332774526	735.333778837937	320.548966928827	881.199685347781	666.998973665156	279.442736394017	962.878059039246	604.899858201837	324.191346534763	947.400052493199	460.368631998128	313.882992717559	847.638455508469	387.118973827881	343.129209802631	746.067710851639	375.502372297486	273.425460853515	748.025893169639	310.287773920008	358.806689529415	501.917458051360	210.835828836279	366.754813144849	550.361814433994	128.994369760210	311.877677530642	664.622017632341	115.980400827886	347.777826460374	716.675349206402	39.330287205947	361.341676470019	982.892293191381	743.588793171335	610.422636938934	901.508509169098	659.889444070697	660.621799773134	983.787193923478	615.610839243467	583.704807438574	989.518330563396	517.971145889312	608.957180319725	953.115545347405	419.365878625414	567.741549589535	886.572965723170	344.583142928908	647.353039545215	943.471508493196	279.943496455619	561.652859472696	832.606848178841	52.921879310561	517.318485350031	906.193101070680	24.875791187587	595.912033435679	1013.570643489852	88.319794718140	578.302067566809	1117.080122833820	43.687422785745	585.963410239450	
39	5.102428571429	957.034309213113	970.188478488439	594.090791568249	931.952529108621	956.824955220699	356.296789027370	998.111901787655	1432.357827790345	517.552029679061	902.821473732058	1479.178452572661	692.852034936797	861.504871534530	1548.264845523378	514.083433355019	925.865718219634	1509.920140731805	328.126628106132	835.678189657364	1203.357980384456	181.095758550468	940.615491962046	936.292943937425	158.717050849203	839.148723061818	1149.371667136578	816.541954571945	1055.894713094793	970.936418742840	743.419795024563	962.941680993985	738.091983375281	318.672958623171	890.888388436288	667.564048937109	277.699742891108	976.286568605868	608.288009504948	320.694786416659	965.683577869470	462.548729665007	310.200779602748	863.859603929289	389.414067298060	339.985297495331	762.229441691961	380.701444238141	270.060310120730	761.833128368507	316.206498341320	356.063210836962	513.036901389916	230.103270387280	363.693025507137	555.903000857939	144.091373319155	309.642550186103	669.599279574839	123.623958425826	346.148307273742	715.290372469261	39.231008003632	360.338844979627	978.725689422977	742.067648620813	610.579564558701	896.060833314294	659.860520034688	662.204599492201	975.555028242463	613.916146184849	583.601314498570	979.922846909076	516.893443651191	608.604997678074	943.021290343963	419.448553503436	568.056599819689	878.043212065734	344.453580757404	648.248522970038	934.518697779253	280.221870020289	561.867598342904	825.091260135967	52.824037148906	517.294952263647	898.604963943300	24.753296818011	595.955856588927	1005.983969535159	88.233488343387	578.113578906083	1109.517545542111	43.644883909303	585.931168136019	
